
        <svg xmlns="http://www.w3.org/2000/svg" xmlns:xlink="http://www.w3.org/1999/xlink" version="1.1" width="3176.4705882352937" 
        height="1904.129642527239" viewBox="0 0 3176.4705882352937 1904.129642527239">
			
			<g transform="scale(8.823529411764707) translate(10, 10)">
				<defs id="SvgjsDefs1328"></defs><g id="SvgjsG1329" featureKey="symbolFeature-0" transform="matrix(3.4875000000000003,0,0,3.4875000000000003,114,0)" fill="#111111"><g xmlns="http://www.w3.org/2000/svg" display="none"><rect x="-153.365" y="-18.667" display="inline" fill="#111111" width="473.333" height="236"></rect></g><g xmlns="http://www.w3.org/2000/svg" display="none"><ellipse transform="matrix(0.7071 -0.7071 0.7071 0.7071 -6.6274 16)" display="inline" cx="16" cy="16" rx="16" ry="16"></ellipse><line display="inline" fill="#111111" stroke="#111111" stroke-miterlimit="10" x1="7.837" y1="15.12" x2="15.267" y2="7.69"></line><line display="inline" fill="#111111" stroke="#111111" stroke-miterlimit="10" x1="7.968" y1="19.579" x2="20.033" y2="7.514"></line><line display="inline" fill="#111111" stroke="#111111" stroke-miterlimit="10" x1="7.759" y1="24.377" x2="24.241" y2="7.896"></line><line display="inline" fill="#111111" stroke="#111111" stroke-miterlimit="10" x1="12.518" y1="24.209" x2="24.064" y2="12.662"></line><line display="inline" fill="#111111" stroke="#111111" stroke-miterlimit="10" x1="16.83" y1="24.486" x2="24.22" y2="17.096"></line></g><g xmlns="http://www.w3.org/2000/svg"><path d="M16,0C11.905,0,7.81,1.562,4.686,4.686c-6.248,6.248-6.248,16.379,0,22.627C7.81,30.438,11.905,32,16,32   c4.095,0,8.19-1.562,11.314-4.686c6.248-6.248,6.248-16.379,0-22.627C24.19,1.562,20.095,0,16,0z M26.607,26.607   C23.773,29.44,20.007,31,16,31s-7.773-1.56-10.607-4.393c-5.849-5.849-5.849-15.365,0-21.213C8.227,2.56,11.993,1,16,1   s7.773,1.56,10.607,4.393C32.455,11.242,32.455,20.758,26.607,26.607z"></path><rect x="6.298" y="10.905" transform="matrix(0.7071 -0.7071 0.7071 0.7071 -4.681 11.5091)" width="10.508" height="1"></rect><rect x="5.469" y="13.046" transform="matrix(0.7071 -0.7071 0.7071 0.7071 -5.4781 13.8675)" width="17.063" height="1"></rect><rect x="4.346" y="15.637" transform="matrix(0.7071 -0.7071 0.7071 0.7071 -6.7239 16.04)" width="23.307" height="1"></rect><rect x="10.126" y="17.936" transform="matrix(0.7071 -0.7071 0.7071 0.7071 -7.6786 18.3333)" width="16.33" height="1"></rect><rect x="15.3" y="20.292" transform="matrix(0.7071 -0.7071 0.7071 0.7071 -8.6902 20.603)" width="10.451" height="1"></rect></g><g xmlns="http://www.w3.org/2000/svg" display="none"><g display="inline"><path fill="#111111" d="M16,31.5c-4.141,0-8.032-1.612-10.96-4.54S0.5,20.141,0.5,16c0-4.14,1.612-8.033,4.54-10.96    C7.968,2.112,11.859,0.5,16,0.5s8.032,1.612,10.96,4.54C29.888,7.967,31.5,11.86,31.5,16c0,4.141-1.612,8.032-4.54,10.96    S20.141,31.5,16,31.5z"></path><g><path fill="#111111" d="M16,1c4.007,0,7.773,1.56,10.607,4.393c5.848,5.849,5.848,15.365,0,21.213C23.773,29.44,20.007,31,16,31     c-4.007,0-7.773-1.56-10.607-4.393c-5.849-5.849-5.849-15.365,0-21.213C8.227,2.56,11.993,1,16,1 M16,0     C11.905,0,7.81,1.562,4.686,4.686c-6.248,6.248-6.248,16.379,0,22.627C7.81,30.438,11.905,32,16,32s8.19-1.562,11.314-4.686     c6.248-6.248,6.248-16.379,0-22.627C24.19,1.562,20.095,0,16,0L16,0z"></path></g></g><line display="inline" fill="#111111" stroke="#111111" stroke-miterlimit="10" x1="7.837" y1="15.12" x2="15.267" y2="7.69"></line><line display="inline" fill="#111111" stroke="#111111" stroke-miterlimit="10" x1="7.968" y1="19.579" x2="20.033" y2="7.514"></line><line display="inline" fill="#111111" stroke="#111111" stroke-miterlimit="10" x1="7.759" y1="24.377" x2="24.241" y2="7.896"></line><line display="inline" fill="#111111" stroke="#111111" stroke-miterlimit="10" x1="12.518" y1="24.209" x2="24.064" y2="12.662"></line><line display="inline" fill="#111111" stroke="#111111" stroke-miterlimit="10" x1="16.83" y1="24.486" x2="24.22" y2="17.096"></line></g><g xmlns="http://www.w3.org/2000/svg" display="none"><path display="inline" d="M4.686,4.686c-6.248,6.248-6.248,16.379,0,22.627c6.248,6.248,16.379,6.248,22.627,0   c6.248-6.248,6.248-16.379,0-22.627C21.065-1.562,10.935-1.562,4.686,4.686z M19.68,7.16l0.707,0.707L8.321,19.933l-0.707-0.707   L19.68,7.16z M14.914,7.336l0.707,0.707l-7.431,7.43l-0.707-0.707L14.914,7.336z M12.871,24.562l-0.707-0.707l11.547-11.547   l0.707,0.707L12.871,24.562z M17.184,24.84l-0.707-0.707l7.39-7.39l0.707,0.707L17.184,24.84z M8.113,24.73l-0.707-0.707   l16.48-16.481l0.707,0.707L8.113,24.73z"></path></g></g><g id="SvgjsG1330" featureKey="nameFeature-0" transform="matrix(2.096069934720758,0,0,2.096069934720758,-4.179108346773454,111.84038510472476)" fill="#111111"><path d="M7.36 9.96 c-0.88 0.04 -3.24 0 -3.56 0 c-0.56 -0.04 -0.92 0.28 -0.88 0.84 c0 0.24 0.08 0.48 0.2 0.68 c1.16 2.2 2.24 4.68 3.28 6.92 l2.52 5.28 c0.24 0.52 0.08 0.96 -0.12 1.48 c-0.12 0.28 -0.2 0.6 -0.32 0.88 c-1.56 3.68 -3.32 7.4 -5.2 10.92 c-0.4 0.76 -0.84 1.56 -1.2 2.32 c-0.48 0.96 1.12 0.72 2.92 0.72 c2.84 0 2.88 -0.16 3.04 -0.52 c0.44 -0.92 3.08 -9.08 3.84 -9.08 c0.6 0 3.56 7.88 4.24 9.16 c0.16 0.32 0.68 0.48 1.08 0.48 l2.76 0 c0.52 0 1.76 0.16 1.76 -0.52 c0 -0.52 -2 -3.88 -2.56 -5.12 l-2.44 -5.44 c-0.4 -0.88 -0.76 -1.76 -1.16 -2.6 c-0.28 -0.68 -0.8 -1.56 -0.84 -2.28 c0 -0.4 4.52 -9.16 6.2 -13.28 c0.4 -1 -1.12 -0.8 -1.64 -0.8 c-0.96 0.04 -1.76 0 -2.68 0.04 c-0.88 0 -1.12 0.24 -1.44 1 l-0.24 0.56 c-0.8 1.68 -1.96 4.76 -2.8 6.44 c-0.04 0.08 -0.16 0.2 -0.24 0.2 c-0.12 0 -0.24 -0.12 -0.24 -0.24 c-0.68 -1.72 -2.08 -5.36 -2.88 -7 c-0.36 -0.72 -0.56 -1.08 -1.4 -1.04 z M34.208 29.68 c-0.12 -4.56 -0.08 -9.4 -0.04 -13.92 c0 -1.4 -0.08 -2.92 -0.08 -4.32 c0 -1.52 -0.6 -1.44 -1.4 -1.48 c-1.16 -0.04 -1.68 -0.04 -2.84 -0.04 c-0.76 -0.04 -1.08 0.16 -1.08 0.92 c0 3.92 -0.12 15 -0.08 16.6 s0.2 8.88 0.12 10.48 c-0.04 0.56 0 1.12 0.04 1.68 c0.04 0.2 0.16 0.4 0.48 0.4 c1.32 -0.08 2.56 -0.08 3.88 -0.12 c0.48 -0.04 0.88 -0.16 1.08 -0.68 c0.04 -0.28 -0.08 -7.6 -0.08 -9.52 z M44.936 39.68 c0.12 0.04 0.48 0.04 0.84 0.04 c0.8 0 1.04 -2.88 1.12 -3.48 c0.04 -0.48 0.16 -0.52 0.56 -0.6 c2 -0.24 3 -0.08 5 -0.04 c0.44 0 0.68 0.2 0.8 0.56 l0.28 0.92 c0.24 0.68 0.44 1.52 0.68 2.2 c0.16 0.48 0.2 0.44 0.68 0.44 c0.64 0 2.96 0 3.64 -0.04 c0.92 0 0.28 -1.88 0.16 -2.2 c-0.36 -1.12 -0.44 -2.28 -0.8 -3.4 c-0.16 -0.48 -4.72 -22.12 -4.92 -23.32 c-0.28 -0.72 -0.04 -0.76 -0.68 -0.76 c-1.36 0 -2.8 0.08 -4.2 0 c-0.56 0 -0.52 0.16 -0.6 0.76 c-0.08 0.56 -1.52 6.92 -2.08 9.56 c-0.72 3.32 -1.36 6.52 -2.16 9.8 c-0.28 1.16 -2.2 9.52 -1.96 9.56 c0.12 0.08 0.32 0.04 0.48 0.04 c1 0 1.92 0 3.16 -0.04 z M50.176 30.6 l-0.84 0 c-1.12 0 -1.16 0 -0.88 -1.16 c0.2 -0.88 1.28 -5.64 1.52 -6.8 c0.04 -0.08 0.12 -0.16 0.16 -0.16 c0.08 0 0.16 0.08 0.2 0.12 c0.16 0.48 0.32 1.68 0.48 2.16 c0.36 1.52 0.6 2.8 0.96 4.44 c0.36 1.44 0.2 1.44 -0.52 1.44 c-0.36 0 -0.72 -0.04 -1.08 -0.04 z M83.024 10.920000000000002 c0.12 0.56 0.04 27.2 0.04 27.88 c0 1.2 -0.44 1.16 -1.24 1.16 c-1.2 0 -2.88 0.2 -3.24 -0.2 c-0.32 -0.28 -6.24 -14.56 -7.08 -16.36 c-0.08 -0.16 -0.28 -0.56 -0.44 -0.48 c-0.2 0.08 -0.12 0.36 -0.12 0.52 c-0.04 1.4 0.2 13.48 0.2 15.4 c0 0.96 -0.04 1.12 -0.84 1.12 l-2 0 c-0.52 0 -1.16 -0.04 -1.68 0.04 c-0.4 0 -0.6 -0.12 -0.64 -0.52 l0 -3.16 c0.08 -3.36 0 -23.28 0 -24.76 c0 -1.28 0.36 -1.52 1.64 -1.52 c0.88 -0.04 1.76 -0.04 2.64 -0.04 c0.28 0 0.44 0.04 0.6 0.4 c1.08 2.52 5.68 14.08 6.4 15.48 c0.12 0.28 0.56 1.4 0.8 1.52 l0.04 0 c0.16 -0.16 0.12 -0.96 0.12 -1.2 c0 -0.6 -0.32 -14.64 -0.32 -14.92 c0 -0.4 -0.12 -0.76 0.08 -1.04 c0.12 -0.16 0.64 -0.2 0.84 -0.24 c1.12 -0.08 2.44 0.04 3.56 0 c0.56 0 0.52 0.4 0.64 0.92 z M107.99199999999999 33.28 c0.04 1.92 0 3.88 -0.12 5.8 c0 0.16 -0.12 0.32 -0.24 0.4 c-0.16 0.12 -0.36 0.2 -0.56 0.2 c-2.48 0.4 -5.48 0.6 -7.88 -0.2 c-5.4 -1.84 -9.08 -7.88 -9.08 -14.8 c0 -7.48 5.36 -14.76 13.16 -15.04 c1.04 -0.04 4.6 -0.2 4.48 1.56 c-0.08 1.28 0.04 2.32 0 3.64 c0 0.24 -0.16 0.4 -0.4 0.36 c-2.28 -0.28 -4.88 -1 -7.08 0.04 c-1.84 0.88 -3.12 2.76 -3.84 4.6 c-1.28 3.04 -1 6.56 -0.12 9.68 c0.68 2.48 2.16 5.4 5.12 5.48 c0.16 0.04 1.68 0.12 1.68 -0.04 l-0.12 -5.12 c-0.04 -0.24 -0.04 -0.48 -0.08 -0.72 s-0.2 -0.32 -0.44 -0.36 c-0.64 0 -0.64 -0.04 -1.28 -0.04 c-1.48 0 -1.16 -1 -1.2 -1.32 c-0.04 -0.6 0 -1.16 -0.04 -1.76 c-0.04 -0.56 0.12 -1 0.68 -1.08 l0.48 0 c2.08 -0.12 4.2 0.04 6.4 0.04 c0.32 0 0.48 0.4 0.48 0.76 c0.04 0.4 0.04 0.68 0.04 1.08 c0.12 1.96 -0.12 3.96 -0.08 5.92 c0.04 0.32 0.04 0.6 0.04 0.92 z M115.03999999999999 13.920000000000002 c-0.04 2.48 0.2 20.6 0.16 21.92 c0 1.24 0 2.48 0.04 3.72 c0 0.2 0.12 0.4 0.32 0.4 c2.8 0.12 5.56 -0.12 8.36 -0.08 c0.92 0.04 1.84 0 2.72 0 c0.88 -0.04 0.96 -0.4 0.92 -1.12 c-0.04 -1.12 -0.04 -2.12 -0.04 -3.2 c-0.04 -0.56 -0.36 -0.76 -0.84 -0.76 c-1.64 0.04 -3.28 -0.04 -4.92 0.04 c-0.28 0.04 -0.56 0.04 -0.84 0.04 c-0.48 -0.04 -0.6 -0.16 -0.64 -0.68 l0 -0.6 c-0.12 -3.32 0.12 -6.76 0.12 -10.08 c-0.04 -2.8 0 -5.32 -0.04 -7.8 c0 -1.08 0 -2.16 -0.04 -3.2 c-0.04 -0.64 0 -1.32 -0.16 -1.96 c-0.08 -0.24 -0.2 -0.56 -0.48 -0.56 l-3.76 0 c-0.64 0 -0.84 0.44 -0.88 1.08 l0 2.84 z M140.048 29.68 c-0.12 -4.56 -0.08 -9.4 -0.04 -13.92 c0 -1.4 -0.08 -2.92 -0.08 -4.32 c0 -1.52 -0.6 -1.44 -1.4 -1.48 c-1.16 -0.04 -1.68 -0.04 -2.84 -0.04 c-0.76 -0.04 -1.08 0.16 -1.08 0.92 c0 3.92 -0.12 15 -0.08 16.6 s0.2 8.88 0.12 10.48 c-0.04 0.56 0 1.12 0.04 1.68 c0.04 0.2 0.16 0.4 0.48 0.4 c1.32 -0.08 2.56 -0.08 3.88 -0.12 c0.48 -0.04 0.88 -0.16 1.08 -0.68 c0.04 -0.28 -0.08 -7.6 -0.08 -9.52 z M164.136 10.920000000000002 c0.12 0.56 0.04 27.2 0.04 27.88 c0 1.2 -0.44 1.16 -1.24 1.16 c-1.2 0 -2.88 0.2 -3.24 -0.2 c-0.32 -0.28 -6.24 -14.56 -7.08 -16.36 c-0.08 -0.16 -0.28 -0.56 -0.44 -0.48 c-0.2 0.08 -0.12 0.36 -0.12 0.52 c-0.04 1.4 0.2 13.48 0.2 15.4 c0 0.96 -0.04 1.12 -0.84 1.12 l-2 0 c-0.52 0 -1.16 -0.04 -1.68 0.04 c-0.4 0 -0.6 -0.12 -0.64 -0.52 l0 -3.16 c0.08 -3.36 0 -23.28 0 -24.76 c0 -1.28 0.36 -1.52 1.64 -1.52 c0.88 -0.04 1.76 -0.04 2.64 -0.04 c0.28 0 0.44 0.04 0.6 0.4 c1.08 2.52 5.68 14.08 6.4 15.48 c0.12 0.28 0.56 1.4 0.8 1.52 l0.04 0 c0.16 -0.16 0.12 -0.96 0.12 -1.2 c0 -0.6 -0.32 -14.64 -0.32 -14.92 c0 -0.4 -0.12 -0.76 0.08 -1.04 c0.12 -0.16 0.64 -0.2 0.84 -0.24 c1.12 -0.08 2.44 0.04 3.56 0 c0.56 0 0.52 0.4 0.64 0.92 z"></path></g>
			</g>
		</svg>
	